<svg width="158" height="158" viewBox="0 0 158 158" fill="none" xmlns="http://www.w3.org/2000/svg">
<path fill-rule="evenodd" clip-rule="evenodd" d="M135.166 56.1658L158 79L135.166 101.834V135.166H101.834L79 158L56.1658 135.166H22.8462V101.846L0 79L22.8462 56.1538V22.8462H56.1538L79 0L101.846 22.8462H135.166V56.1658ZM135.166 63.1479L151.018 79L135.166 94.8521V63.1479ZM106.783 27.7833H130.229V51.2287L106.783 27.7833ZM99.8011 27.7833L130.229 58.2108V99.7892L99.7892 130.229H58.2108L27.7833 99.8011V58.1989L58.1989 27.7833H99.8011ZM94.864 22.8462L79 6.98215L63.136 22.8462H94.864ZM51.2167 27.7833H27.7833V51.2167L51.2167 27.7833ZM22.8462 63.136L6.98215 79L22.8462 94.864V63.136ZM27.7833 106.783V130.229H51.2287L27.7833 106.783ZM63.1479 135.166L79 151.018L94.8521 135.166H63.1479ZM106.771 130.229H130.229V106.771L106.771 130.229Z" fill="white"/>
</svg>
